<svg width="79" height="76" viewBox="0 0 79 76" fill="none" xmlns="http://www.w3.org/2000/svg">
<path d="M63.7846 15.024C63.3126 14.482 62.3376 14.038 61.6176 14.038H16.6616C15.9426 14.038 14.9686 14.482 14.4976 15.024L0.347577 31.309C-0.123423 31.852 -0.114423 32.733 0.366577 33.266L38.2626 75.143C38.7436 75.677 39.5336 75.677 40.0166 75.143L77.9116 33.266C78.3936 32.733 78.4036 31.852 77.9326 31.309L63.7846 15.024ZM44.2476 17.933H58.7516C59.4716 17.933 59.7486 18.433 59.3676 19.044L53.0986 29.111C52.7166 29.722 52.0476 29.757 51.6076 29.187L43.7376 18.97C43.2986 18.399 43.5276 17.933 44.2476 17.933ZM41.0446 19.305L49.0336 29.676C49.4746 30.247 49.2456 30.712 48.5246 30.712H31.1566C30.4366 30.712 30.2256 30.26 30.6876 29.708L39.4086 19.272C39.8686 18.719 40.6066 18.735 41.0446 19.305ZM20.2416 17.933H36.1756C36.8936 17.933 37.1046 18.385 36.6426 18.937L27.9696 29.314C27.5086 29.867 26.8056 29.825 26.4096 29.227L19.6546 19.023C19.2596 18.424 19.5226 17.933 20.2416 17.933ZM6.88458 29.725L15.7046 19.573C16.1766 19.031 16.8876 19.076 17.2846 19.677L23.8686 29.623C24.2646 30.221 24.0016 30.713 23.2816 30.713H7.33358C6.61558 30.712 6.41258 30.267 6.88458 29.725ZM34.2166 64.865L7.00658 34.796C6.52358 34.266 6.71758 33.829 7.43658 33.829H24.9866C25.7046 33.829 26.4486 34.395 26.6416 35.089L34.7466 64.574C34.9366 65.268 34.6976 65.397 34.2166 64.865ZM39.3226 66.643C39.0826 67.323 38.7326 67.308 38.5426 66.616L29.8716 35.09C29.6806 34.397 30.1136 33.83 30.8326 33.83H49.5966C50.3146 33.83 50.7076 34.383 50.4686 35.06L39.3226 66.643ZM71.2736 34.796L43.6106 65.366C43.1306 65.898 42.9306 65.78 43.1706 65.101L53.7736 35.06C54.0116 34.382 54.7956 33.83 55.5166 33.83H70.8456C71.5626 33.829 71.7576 34.266 71.2736 34.796ZM70.9466 30.712H56.1636C55.4446 30.712 55.1666 30.212 55.5486 29.602L61.4286 20.158C61.8066 19.548 62.5046 19.491 62.9766 20.034L71.3966 29.725C71.8676 30.267 71.6646 30.712 70.9466 30.712Z" fill="white"/>
<path d="M40.965 7.73243C41.4221 7.73036 41.802 7.52213 41.809 7.26702L42.0089 0.473309C42.0167 0.218664 41.651 0.0145133 41.1931 0.0165983C40.7342 0.0182191 40.3561 0.226896 40.3473 0.481558L40.1474 7.27527C40.1405 7.5299 40.5062 7.73453 40.965 7.73243Z" fill="white"/>
<path d="M24.8412 8.75197C25.2836 8.63676 25.6 8.34081 25.5436 8.09178L24.7985 4.77416L24.0535 1.45654C23.998 1.20775 23.5931 1.10042 23.1499 1.21586C22.7058 1.33108 22.3911 1.62702 22.4458 1.87605L23.9358 8.5113C23.9922 8.75986 24.3972 8.86765 24.8412 8.75197Z" fill="white"/>
<path d="M57.7998 8.74528C58.2509 8.81908 58.6601 8.67677 58.7093 8.42635L60.0336 1.75997C60.0836 1.51016 59.7569 1.24817 59.3049 1.17424C58.8522 1.0997 58.4446 1.24274 58.3938 1.49243L57.0694 8.15881C57.0203 8.40875 57.347 8.67122 57.7998 8.74528Z" fill="white"/>
<path d="M67.7113 14.1668C68.1099 14.3905 68.5431 14.3968 68.675 14.1783L72.2002 8.36731C72.3326 8.14968 72.1152 7.79171 71.7158 7.56761C71.3159 7.34267 70.884 7.33765 70.7508 7.55487L67.2256 13.3659C67.0939 13.5839 67.3111 13.9423 67.7113 14.1668Z" fill="white"/>
<path d="M11.6045 13.008C12.0034 12.7848 12.2431 12.4323 12.1357 12.2226L9.28963 6.63229C9.18328 6.42257 8.77265 6.43475 8.37302 6.65842C7.97241 6.88214 7.73446 7.23417 7.84007 7.44432L10.6862 13.0346C10.7933 13.2439 11.2041 13.2321 11.6045 13.008Z" fill="white"/>
</svg>
