<svg width="12" height="12" viewBox="0 0 12 12" fill="none" xmlns="http://www.w3.org/2000/svg">
<path d="M9.77797 2.38661C9.70561 2.30051 9.55615 2.22998 9.44577 2.22998H2.55417C2.44395 2.22998 2.29463 2.30051 2.22243 2.38661L0.0532824 4.97346C-0.0189203 5.05971 -0.0175406 5.19966 0.0561951 5.28433L5.86553 11.9364C5.93926 12.0213 6.06037 12.0213 6.13441 11.9364L11.9436 5.28433C12.0175 5.19966 12.019 5.05971 11.9468 4.97346L9.77797 2.38661ZM6.78301 2.8487H9.00642C9.1168 2.8487 9.15926 2.92812 9.10086 3.02518L8.13984 4.62431C8.08128 4.72137 7.97872 4.72693 7.91127 4.63638L6.70483 3.01342C6.63753 2.92272 6.67264 2.8487 6.78301 2.8487ZM6.292 3.06664L7.51669 4.71406C7.58429 4.80476 7.54919 4.87863 7.43866 4.87863H4.7762C4.66583 4.87863 4.63348 4.80683 4.70431 4.71914L6.04121 3.0614C6.11172 2.97355 6.22486 2.97609 6.292 3.06664ZM3.10297 2.8487H5.5456C5.65566 2.8487 5.68801 2.9205 5.61719 3.00818L4.28765 4.65656C4.21698 4.7444 4.10921 4.73773 4.0485 4.64274L3.01298 3.02184C2.95243 2.92669 2.99275 2.8487 3.10297 2.8487ZM1.05538 4.72184L2.40746 3.10921C2.47982 3.02311 2.58881 3.03026 2.64967 3.12573L3.65898 4.70564C3.71968 4.80063 3.67936 4.87879 3.56899 4.87879H1.12421C1.01415 4.87863 0.983027 4.80794 1.05538 4.72184ZM5.24529 10.3038L1.07409 5.52737C1.00004 5.44318 1.02978 5.37376 1.14 5.37376H3.83036C3.94043 5.37376 4.05448 5.46367 4.08407 5.57391L5.32654 10.2576C5.35566 10.3678 5.31903 10.3883 5.24529 10.3038ZM6.02802 10.5862C5.99123 10.6942 5.93758 10.6919 5.90845 10.5819L4.57922 5.57407C4.54994 5.46399 4.61631 5.37392 4.72653 5.37392H7.60299C7.71306 5.37392 7.77331 5.46176 7.73667 5.5693L6.02802 10.5862ZM10.926 5.52737L6.68536 10.3834C6.61178 10.4679 6.58112 10.4491 6.61791 10.3413L8.24331 5.5693C8.2798 5.4616 8.39998 5.37392 8.51051 5.37392H10.8604C10.9703 5.37376 11.0002 5.44318 10.926 5.52737ZM10.8759 4.87863H8.60969C8.49947 4.87863 8.45686 4.7992 8.51542 4.70231L9.4168 3.20214C9.47475 3.10524 9.58175 3.09618 9.6541 3.18244L10.9449 4.72184C11.0171 4.80794 10.9859 4.87863 10.8759 4.87863Z" fill="#FFA500"/>
<path d="M6.27977 1.22824C6.34984 1.22791 6.40808 1.19483 6.40915 1.15431L6.43979 0.0751363C6.44099 0.0346862 6.38493 0.002257 6.31473 0.00258819C6.24439 0.00284566 6.18642 0.0359937 6.18508 0.0764466L6.15444 1.15562C6.15337 1.19607 6.20943 1.22857 6.27977 1.22824Z" fill="#FFA500"/>
<path d="M3.80811 1.39017C3.87592 1.37187 3.92443 1.32486 3.91577 1.2853L3.80157 0.758304L3.68736 0.231303C3.67885 0.191782 3.61678 0.174733 3.54884 0.193072C3.48075 0.211373 3.43252 0.258384 3.4409 0.297942L3.66932 1.35194C3.67795 1.39143 3.74004 1.40855 3.80811 1.39017Z" fill="#FFA500"/>
<path d="M8.86052 1.38908C8.92967 1.4008 8.9924 1.3782 8.99994 1.33842L9.20296 0.279474C9.21062 0.239791 9.16053 0.198173 9.09125 0.18643C9.02184 0.17459 8.95937 0.197312 8.95157 0.236974L8.74856 1.29592C8.74102 1.33562 8.7911 1.37732 8.86052 1.38908Z" fill="#FFA500"/>
<path d="M10.3799 2.25044C10.441 2.28597 10.5074 2.28697 10.5276 2.25227L11.068 1.3292C11.0883 1.29463 11.055 1.23776 10.9938 1.20216C10.9325 1.16643 10.8663 1.16564 10.8459 1.20014L10.3055 2.12321C10.2853 2.15785 10.3186 2.21478 10.3799 2.25044Z" fill="#FFA500"/>
<path d="M1.77907 2.06632C1.84021 2.03086 1.87696 1.97487 1.8605 1.94156L1.42421 1.05355C1.4079 1.02023 1.34495 1.02217 1.28369 1.0577C1.22228 1.09324 1.1858 1.14916 1.20199 1.18254L1.63829 2.07055C1.65471 2.1038 1.71769 2.10192 1.77907 2.06632Z" fill="#FFA500"/>
</svg>
